# xmcd
#
# Track frame offsets:
#      150
#      16114
#      28182
#      41976
#      58723
#      75825
#      93809
#      110265
#      129570
#      146528
#      162762
#      177061
# 
# Disc length: 2675 seconds
#
# Revision: 4
# Processed by: cddbd v1.4PL0 Copyright (c) Steve Scherf et al.
#
# Submitted via: FreeRIP 1.21
#
DISCID=8b0a710c
DTITLE=Shania Twain - Wild and Wicked
DYEAR=2000
DGENRE=country
TTITLE0=For The Love Of Him
TTITLE1=Bite My Lip
TTITLE2=Wild and Wicked
TTITLE3=Send It With Love
TTITLE4=(Don't Give Me That) Once Over
TTITLE5=Hate To Love
TTITLE6=Luv Eyes
TTITLE7=I Lost My Heart When I Found You
TTITLE8=The Rhythm Made Me Do It
TTITLE9=Two Hearts One Love
TTITLE10=Half-Breed
TTITLE11=For The Love Of Him (Dance Mix)
EXTD=
EXTT0=
EXTT1=
EXTT2=
EXTT3=
EXTT4=
EXTT5=
EXTT6=
EXTT7=
EXTT8=
EXTT9=
EXTT10=
EXTT11=
PLAYORDER=
